<?xml version="1.0" encoding="UTF-8" standalone="no"?>
<svg width="24px" height="42px" viewBox="0 0 24 42" version="1.1" xmlns="http://www.w3.org/2000/svg" xmlns:xlink="http://www.w3.org/1999/xlink" xmlns:sketch="http://www.bohemiancoding.com/sketch/ns">
    <!-- Generator: Sketch 3.4.4 (17249) - http://www.bohemiancoding.com/sketch -->
    <title>Logos / F V5</title>
    <desc>Created with Sketch.</desc>
    <defs></defs>
    <g id="Home" stroke="none" stroke-width="1" fill="none" fill-rule="evenodd" sketch:type="MSPage">
        <g id="Mobile-Portrait" sketch:type="MSArtboardGroup" transform="translate(-154.000000, -20.000000)">
            <g id="header" sketch:type="MSLayerGroup" transform="translate(-1.000000, -2.000000)">
                <rect id="Rectangle-7" fill="#FAFAFA" sketch:type="MSShapeGroup" x="0" y="0" width="321" height="87"></rect>
                <g id="logo" transform="translate(134.000000, 10.000000)" sketch:type="MSShapeGroup">
                    <circle id="Oval-4" fill="#FFFFFF" cx="32.578125" cy="32.7582721" r="32.5"></circle>
                    <g id="Logos-/-F-V5" transform="translate(20.997243, 11.832721)">
                        <path d="M18.0540723,6.97518824 C17.7725368,6.88134306 17.4440836,6.80313992 17.0687029,6.74057647 C16.6933222,6.67801302 16.3179472,6.64673176 15.9425665,6.64673176 C15.2230868,6.64673176 14.6443836,6.77185679 14.2064394,7.02211059 C13.7684953,7.27236439 13.4244014,7.60863789 13.1741476,8.03094118 C12.9238938,8.45324446 12.7518469,8.93028362 12.6580018,9.46207294 C12.5641566,9.99386227 12.5172347,10.5256436 12.5172347,11.0574329 L12.5172347,36.7708824 L4.82196882,36.7708824 L4.82196882,19.175 L0.552034703,19.175 L0.552034703,13.4035506 L4.82196882,13.4035506 L4.82196882,11.1512776 C4.82196882,9.7123183 4.9783751,8.34376335 5.29119235,7.04557176 C5.6040096,5.74738018 6.14361126,4.60561434 6.91001353,3.62024 C7.67641579,2.63486566 8.70869723,1.85283427 10.0068888,1.27412235 C11.3050804,0.69541044 12.9238854,0.406058824 14.8633523,0.406058824 C15.5202686,0.406058824 16.1693546,0.445160393 16.81063,0.523364706 C17.4519054,0.601569018 18.0384289,0.718873728 18.5702182,0.875282353 L18.0540723,6.97518824 Z" id="f---light-orange" fill="#DDDDDD"></path>
                        <path d="M22.9589753,11.4305559 C22.6774398,11.3367107 22.3489866,11.2585076 21.9736059,11.1959441 C21.5982252,11.1333807 21.2228501,11.1020994 20.8474694,11.1020994 C20.1279897,11.1020994 19.5492865,11.2272244 19.1113423,11.4774782 C18.6733982,11.727732 18.3293044,12.0640055 18.0790506,12.4863088 C17.8287968,12.9086121 17.6567499,13.3856513 17.5629047,13.9174406 C17.4690595,14.4492299 17.4221376,14.9810113 17.4221376,15.5128006 L17.4221376,17.8589182 L22.6305188,17.8589182 L22.6305188,23.6303676 L17.4221376,23.6303676 L17.4221376,41.22625 L11.4892799,41.22625 L11.4892799,23.6303676 L11.4892799,17.8589182 L11.4892799,15.6066453 C11.4892799,14.1676859 10.7292339,12.799131 11.0420512,11.5009394 C11.3548684,10.2027478 11.0485142,9.06098199 11.8149165,8.07560765 C12.5813187,7.09023331 13.6136002,6.44919456 14.9117918,5.87048265 C16.2099833,5.29177074 17.8287883,5.00241912 19.7682553,5.00241912 C20.4251715,5.00241912 21.0742576,5.04152069 21.7155329,5.119725 C22.3568083,5.19792931 22.9433318,5.526723 23.4751212,5.68313162 L22.9589753,11.4305559 Z" id="f---dark-orange" fill="#9B9B9B"></path>
                        <path d="M18.3322315,4.72023167 C18.3613027,4.85457562 18.4194452,5.12326352 18.4194452,5.12326352 C17.9757452,5.07696589 17.0835288,5.21881048 16.7162444,5.29746483 C16.3489599,5.37611917 16.2785066,5.33019878 15.2692096,5.77583643 C14.1831508,6.25536688 14.4621445,6.10871482 13.9297035,6.41697015 C13.3972625,6.72522548 12.9699149,7.12455026 12.647648,7.61495647 C12.325381,8.10536268 12.0236967,8.58831649 11.8835806,9.20482716 C11.7434646,9.82133782 11.4619186,10.4518506 11.4619186,11.0963845 L11.4619186,37.410049 L10.5371572,37.410049 L10.4951226,11.1384191 C10.692559,9.13939398 10.9312333,9.05114283 11.2394886,8.26649289 C11.547744,7.48184296 11.9470687,6.86534154 12.4374749,6.41697015 C12.9278812,5.96859876 13.4673199,5.5123497 14.0558073,5.33019882 C14.6442948,5.14804794 15.1299036,4.86779178 16.0752187,4.66199105 C17.0205338,4.45619032 17.0932181,4.5127353 18.2765507,4.46291985 L18.3322315,4.72023167 Z" id="f" fill="#FFFFFF"></path>
                    </g>
                </g>
            </g>
        </g>
    </g>
</svg>