<?xml version="1.0" encoding="UTF-8" standalone="no"?>
<svg width="110px" height="110px" viewBox="0 0 110 110" version="1.1" xmlns="http://www.w3.org/2000/svg" xmlns:xlink="http://www.w3.org/1999/xlink" xmlns:sketch="http://www.bohemiancoding.com/sketch/ns">
    <!-- Generator: Sketch 3.4.4 (17249) - http://www.bohemiancoding.com/sketch -->
    <title>Logos / F V4</title>
    <desc>Created with Sketch.</desc>
    <defs>
        <path id="path-1" d="M55,110 C85.3756612,110 110,85.3756612 110,55 C110,24.6243388 85.3756612,0 55,0 C24.6243388,0 0,24.6243388 0,55 C0,85.3756612 24.6243388,110 55,110 Z"></path>
        <filter x="-50%" y="-50%" width="200%" height="200%" filterUnits="objectBoundingBox" id="filter-3">
            <feMorphology radius="1" in="SourceAlpha" operator="dilate" result="shadowSpreadOuter1"></feMorphology>
            <feOffset dx="1" dy="1" in="shadowSpreadOuter1" result="shadowOffsetOuter1"></feOffset>
            <feGaussianBlur stdDeviation="1.5" in="shadowOffsetOuter1" result="shadowBlurOuter1"></feGaussianBlur>
            <feColorMatrix values="0 0 0 0 0   0 0 0 0 0   0 0 0 0 0  0 0 0 0.259 0" in="shadowBlurOuter1" type="matrix" result="shadowMatrixOuter1"></feColorMatrix>
            <feMerge>
                <feMergeNode in="shadowMatrixOuter1"></feMergeNode>
                <feMergeNode in="SourceGraphic"></feMergeNode>
            </feMerge>
        </filter>
    </defs>
    <g id="Home" stroke="none" stroke-width="1" fill="none" fill-rule="evenodd" sketch:type="MSPage">
        <g id="Tablet-Portrait" sketch:type="MSArtboardGroup" transform="translate(-338.000000, -76.000000)">
            <g id="v3---Mobile-Copy" sketch:type="MSLayerGroup" transform="translate(162.000000, 76.000000)">
                <g id="Logos-/-F-V4" transform="translate(176.000000, 0.000000)">
                    <mask id="mask-2" sketch:name="Mask" fill="white">
                        <use xlink:href="#path-1"></use>
                    </mask>
                    <use id="Mask" fill="#8B8A8B" sketch:type="MSShapeGroup" xlink:href="#path-1"></use>
                    <path d="M42.8703613,79.1610107 C42.8703613,79.1610107 42.4648743,50.2666718 45.861084,41.3242188 C48.9098613,33.296579 62.2053223,28.2507324 62.2053223,28.2507324 L233.511719,128.394531 L142.01123,197.495605 L42.8703613,79.1610107 Z" id="Rectangle-28" fill="#5B5B5B" sketch:type="MSShapeGroup" mask="url(#mask-2)"></path>
                    <path d="M52.2588885,79.16 L52.2977008,79.16 L52.2977008,85.48 L60.7135407,85.48 L60.7135407,60.52 L68.1017007,60.52 L68.1017007,52.33312 L60.7135407,52.33312 L60.7135407,49.00512 C60.7135407,48.2507696 60.7801001,47.4964304 60.9132207,46.74208 C61.0463414,45.9877296 61.2903923,45.311043 61.6453807,44.712 C62.0003692,44.112957 62.488471,43.6359484 63.1097007,43.28096 C63.7309305,42.9259716 64.551829,42.74848 65.5724207,42.74848 C66.1049034,42.74848 66.6373781,42.7928529 67.1698607,42.8816 C67.7023434,42.9703471 68.1682587,43.0812793 68.5676207,43.2144 L69.2997807,35.0616 C68.5454303,34.8397322 67.7134386,34.3733339 66.8037807,34.2624 C65.8941229,34.1514661 64.9733854,34.096 64.0415407,34.096 C63.3695704,34.096 62.7247362,34.1204866 62.1070373,34.1694599 C62.1198268,34.2285629 62.1282352,34.2674194 62.1282352,34.2674194 C61.4988406,34.2017456 60.2332195,34.4029541 59.7122215,34.5145264 C59.1912235,34.6260986 59.0912845,34.5609599 57.6595828,35.193103 C56.1189936,35.8733236 56.51475,35.6652956 55.7594751,36.10256 C55.0042003,36.5398244 54.3980019,37.1062721 53.9408618,37.80192 C53.4837217,38.4975679 53.0557784,39.1826445 52.8570218,40.0571733 C52.6582653,40.9317022 52.2588885,41.8260932 52.2588885,42.7403733 L52.2588885,52.6384 L52.2588885,53.7713067 L52.2588885,79.16 Z M50.9471018,79.16 L42.8400288,79.16 L42.8400288,54.2 L36.7830688,54.2 L36.7830688,46.01312 L42.8400288,46.01312 L42.8400288,42.81824 C42.8400288,40.7770565 43.0618932,38.8357425 43.5056288,36.99424 C43.9493643,35.1527375 44.7147967,33.533127 45.8019488,32.13536 C46.8891009,30.737593 48.3534062,29.6282708 50.1949088,28.80736 C52.0364113,27.9864492 54.3327084,27.576 57.0838688,27.576 C58.0157134,27.576 58.9364509,27.6314661 59.8461088,27.7424 C60.7557667,27.8533339 61.5877583,28.0197322 62.3421088,28.2416 L61.9114415,33.3313043 C60.2463754,33.4009295 60.1400967,33.3219863 58.8029178,33.6130981 C57.4619754,33.9050293 56.7731326,34.3025765 55.9383551,34.56096 C55.1035776,34.8193435 54.3383764,35.466539 53.6427285,36.10256 C52.9470805,36.738581 52.3806329,37.6130967 51.9433685,38.7261333 C51.5061041,39.83917 51.1675413,39.9643555 50.8874751,42.8 L50.8874751,52.6384 L50.9471018,53.7713067 L50.9471018,79.16 Z" id="f---light-orange" fill="#FFFFFF" filter="url(#filter-3)" sketch:type="MSShapeGroup" mask="url(#mask-2)"></path>
                </g>
            </g>
        </g>
    </g>
</svg>